<?xml version="1.0" encoding="UTF-8"?>
<svg xmlns="http://www.w3.org/2000/svg" xmlns:xlink="http://www.w3.org/1999/xlink" width="15pt" height="15pt" viewBox="0 0 15 15" version="1.1">
<g id="surface1">
<path style=" stroke:none;fill-rule:nonzero;fill:rgb(100%,59.607843%,0%);fill-opacity:1;" d="M 7.753906 0.0625 C 7.558594 0.121094 7.410156 0.175781 7.21875 0.269531 C 6.484375 0.628906 6.140625 1.160156 6.226562 1.808594 C 6.285156 2.25 6.453125 2.519531 6.835938 2.765625 C 6.921875 2.820312 7.046875 2.902344 7.109375 2.941406 C 7.25 3.03125 7.367188 3.144531 7.417969 3.234375 C 7.472656 3.324219 7.5 3.457031 7.5 3.578125 C 7.5 3.90625 7.335938 4.257812 7 4.660156 C 6.90625 4.773438 6.921875 4.785156 6.878906 4.5625 C 6.800781 4.136719 6.589844 3.695312 6.292969 3.339844 C 6.121094 3.136719 5.902344 3.007812 5.636719 2.957031 C 5.492188 2.933594 5.222656 2.933594 4.945312 2.96875 C 4.667969 3 4.421875 3.003906 4.316406 2.972656 C 4.152344 2.929688 4.042969 2.828125 3.945312 2.636719 C 3.878906 2.5 3.847656 2.386719 3.832031 2.207031 C 3.792969 1.847656 3.910156 1.320312 4.136719 0.800781 L 4.167969 0.730469 L 4.074219 0.824219 C 3.683594 1.207031 3.398438 1.699219 3.328125 2.113281 C 3.300781 2.261719 3.3125 2.519531 3.34375 2.648438 C 3.398438 2.851562 3.492188 3.027344 3.644531 3.210938 C 3.863281 3.46875 4.105469 3.601562 4.429688 3.648438 C 4.480469 3.652344 4.640625 3.660156 4.789062 3.667969 C 5.179688 3.683594 5.300781 3.722656 5.449219 3.867188 C 5.660156 4.074219 5.757812 4.4375 5.726562 4.871094 C 5.714844 5.015625 5.675781 5.269531 5.660156 5.324219 C 5.65625 5.335938 5.632812 5.316406 5.570312 5.242188 C 5.3125 4.9375 5.019531 4.710938 4.667969 4.542969 C 4.398438 4.40625 4.226562 4.363281 4.019531 4.363281 C 3.738281 4.363281 3.496094 4.460938 3.152344 4.710938 C 2.835938 4.9375 2.777344 4.976562 2.695312 5.019531 C 2.464844 5.144531 2.320312 5.152344 2.117188 5.050781 C 1.675781 4.824219 1.371094 4.203125 1.273438 3.3125 C 1.265625 3.222656 1.261719 3.230469 1.210938 3.433594 C 1.148438 3.691406 1.128906 3.867188 1.128906 4.15625 C 1.125 4.320312 1.132812 4.449219 1.140625 4.507812 C 1.199219 4.84375 1.3125 5.089844 1.507812 5.296875 C 1.617188 5.410156 1.722656 5.492188 1.875 5.566406 C 2.183594 5.71875 2.480469 5.757812 2.777344 5.6875 C 2.871094 5.660156 2.953125 5.625 3.226562 5.488281 C 3.582031 5.308594 3.648438 5.285156 3.789062 5.285156 C 4.113281 5.285156 4.4375 5.554688 4.675781 6.023438 C 4.734375 6.140625 4.863281 6.472656 4.855469 6.480469 C 4.855469 6.480469 4.796875 6.464844 4.734375 6.4375 C 4.4375 6.328125 4.148438 6.273438 3.808594 6.273438 C 3.234375 6.273438 2.917969 6.390625 2.65625 6.703125 C 2.535156 6.847656 2.460938 6.988281 2.300781 7.34375 C 2.113281 7.769531 2 7.914062 1.800781 7.972656 C 1.65625 8.019531 1.40625 8.003906 1.230469 7.9375 C 0.855469 7.792969 0.445312 7.445312 0.09375 6.976562 C 0.046875 6.914062 0.0078125 6.859375 0.00390625 6.855469 C -0.0117188 6.839844 0.078125 7.140625 0.132812 7.292969 C 0.15625 7.351562 0.214844 7.480469 0.257812 7.578125 C 0.632812 8.339844 1.195312 8.675781 1.882812 8.542969 C 2.167969 8.492188 2.371094 8.386719 2.546875 8.207031 C 2.652344 8.09375 2.699219 8.03125 2.839844 7.800781 C 2.980469 7.574219 3.054688 7.476562 3.148438 7.40625 C 3.277344 7.3125 3.40625 7.277344 3.613281 7.285156 C 3.816406 7.296875 4.007812 7.359375 4.238281 7.496094 C 4.351562 7.5625 4.574219 7.722656 4.679688 7.816406 L 4.738281 7.867188 L 4.652344 7.882812 C 4.511719 7.902344 4.261719 7.96875 4.136719 8.015625 C 3.773438 8.148438 3.378906 8.402344 3.1875 8.621094 C 2.941406 8.910156 2.875 9.234375 2.941406 9.820312 C 2.992188 10.257812 2.984375 10.429688 2.910156 10.582031 C 2.832031 10.738281 2.652344 10.859375 2.394531 10.925781 C 2.289062 10.957031 2.261719 10.957031 2.046875 10.957031 C 1.859375 10.957031 1.792969 10.953125 1.667969 10.929688 C 1.410156 10.886719 1.097656 10.785156 0.824219 10.667969 L 0.710938 10.617188 L 0.84375 10.75 C 1.367188 11.261719 1.976562 11.53125 2.464844 11.472656 C 2.765625 11.4375 3.035156 11.300781 3.269531 11.0625 C 3.4375 10.898438 3.523438 10.753906 3.582031 10.558594 C 3.621094 10.421875 3.632812 10.320312 3.648438 10 C 3.65625 9.789062 3.660156 9.703125 3.679688 9.632812 C 3.738281 9.417969 3.855469 9.28125 4.085938 9.167969 C 4.359375 9.039062 4.828125 9.019531 5.265625 9.121094 L 5.320312 9.128906 L 5.21875 9.214844 C 4.921875 9.460938 4.679688 9.777344 4.511719 10.128906 C 4.375 10.414062 4.335938 10.582031 4.34375 10.8125 C 4.355469 11.117188 4.445312 11.308594 4.816406 11.824219 C 5.105469 12.21875 5.152344 12.402344 5.039062 12.644531 C 4.867188 13.007812 4.453125 13.273438 3.84375 13.421875 C 3.667969 13.464844 3.453125 13.5 3.332031 13.511719 C 3.28125 13.515625 3.242188 13.519531 3.238281 13.527344 C 3.226562 13.546875 3.535156 13.613281 3.757812 13.644531 C 4.046875 13.6875 4.34375 13.679688 4.589844 13.628906 C 5.066406 13.53125 5.410156 13.253906 5.585938 12.816406 C 5.75 12.421875 5.734375 12.089844 5.542969 11.714844 C 5.519531 11.667969 5.453125 11.542969 5.398438 11.4375 C 5.289062 11.222656 5.261719 11.136719 5.261719 10.996094 C 5.261719 10.683594 5.511719 10.371094 5.945312 10.140625 C 6.105469 10.054688 6.433594 9.921875 6.449219 9.9375 C 6.449219 9.941406 6.433594 9.996094 6.410156 10.050781 C 6.359375 10.1875 6.300781 10.421875 6.273438 10.597656 C 6.242188 10.78125 6.242188 11.183594 6.269531 11.367188 C 6.320312 11.6875 6.417969 11.890625 6.613281 12.078125 C 6.761719 12.21875 6.917969 12.3125 7.261719 12.464844 C 7.734375 12.671875 7.867188 12.773438 7.941406 12.96875 C 8.011719 13.15625 7.96875 13.460938 7.835938 13.71875 C 7.675781 14.039062 7.351562 14.398438 6.957031 14.695312 C 6.859375 14.769531 6.855469 14.773438 6.890625 14.773438 C 6.960938 14.773438 7.339844 14.636719 7.53125 14.542969 C 7.996094 14.316406 8.292969 14.039062 8.4375 13.695312 C 8.503906 13.546875 8.53125 13.429688 8.535156 13.246094 C 8.554688 12.835938 8.425781 12.488281 8.167969 12.238281 C 8.078125 12.152344 8 12.097656 7.65625 11.875 C 7.390625 11.707031 7.289062 11.566406 7.261719 11.332031 C 7.214844 10.992188 7.394531 10.566406 7.769531 10.132812 L 7.839844 10.046875 L 7.863281 10.167969 C 7.929688 10.589844 8.101562 10.996094 8.371094 11.355469 C 8.527344 11.5625 8.6875 11.699219 8.875 11.777344 C 9.121094 11.878906 9.355469 11.894531 9.84375 11.839844 C 9.957031 11.828125 10.117188 11.820312 10.203125 11.820312 C 10.445312 11.820312 10.550781 11.855469 10.675781 11.976562 C 10.769531 12.070312 10.847656 12.222656 10.890625 12.390625 C 10.917969 12.496094 10.921875 12.523438 10.921875 12.746094 C 10.921875 12.953125 10.917969 13.011719 10.898438 13.128906 C 10.847656 13.394531 10.777344 13.632812 10.667969 13.890625 C 10.632812 13.972656 10.601562 14.046875 10.597656 14.058594 C 10.585938 14.089844 10.753906 13.917969 10.871094 13.78125 C 11.011719 13.613281 11.089844 13.5 11.191406 13.324219 C 11.429688 12.910156 11.5 12.492188 11.402344 12.128906 C 11.300781 11.761719 10.976562 11.386719 10.65625 11.253906 C 10.476562 11.175781 10.355469 11.160156 9.902344 11.140625 C 9.589844 11.125 9.488281 11.09375 9.351562 10.988281 C 9.195312 10.863281 9.082031 10.636719 9.039062 10.359375 C 9.019531 10.214844 9.023438 9.871094 9.054688 9.707031 C 9.078125 9.558594 9.097656 9.476562 9.105469 9.476562 C 9.109375 9.476562 9.140625 9.511719 9.175781 9.558594 C 9.261719 9.667969 9.480469 9.882812 9.613281 9.980469 C 9.855469 10.167969 10.210938 10.355469 10.453125 10.414062 C 10.785156 10.5 11.105469 10.433594 11.464844 10.199219 C 11.515625 10.164062 11.652344 10.066406 11.765625 9.984375 C 11.976562 9.828125 12.152344 9.730469 12.257812 9.707031 C 12.339844 9.6875 12.492188 9.695312 12.570312 9.726562 C 12.738281 9.792969 12.933594 9.964844 13.058594 10.148438 C 13.136719 10.261719 13.246094 10.488281 13.292969 10.636719 C 13.375 10.867188 13.457031 11.238281 13.476562 11.46875 C 13.480469 11.519531 13.488281 11.5625 13.492188 11.558594 C 13.496094 11.554688 13.515625 11.488281 13.535156 11.40625 C 13.6875 10.785156 13.664062 10.242188 13.472656 9.839844 C 13.355469 9.585938 13.148438 9.382812 12.890625 9.25 C 12.636719 9.121094 12.371094 9.066406 12.152344 9.09375 C 11.949219 9.121094 11.8125 9.171875 11.390625 9.394531 C 11.320312 9.433594 11.21875 9.476562 11.167969 9.496094 C 10.742188 9.628906 10.296875 9.304688 10.019531 8.65625 C 9.957031 8.507812 9.898438 8.34375 9.90625 8.335938 C 9.90625 8.335938 9.953125 8.347656 10 8.367188 C 10.144531 8.421875 10.320312 8.46875 10.503906 8.503906 C 10.648438 8.53125 10.703125 8.53125 10.933594 8.535156 C 11.484375 8.535156 11.757812 8.449219 12.015625 8.195312 C 12.171875 8.035156 12.28125 7.863281 12.4375 7.507812 C 12.597656 7.132812 12.699219 6.980469 12.835938 6.890625 C 13.0625 6.742188 13.480469 6.800781 13.839844 7.035156 C 14.117188 7.214844 14.425781 7.515625 14.667969 7.839844 C 14.710938 7.902344 14.75 7.953125 14.75 7.949219 C 14.75 7.921875 14.699219 7.742188 14.652344 7.609375 C 14.496094 7.152344 14.25 6.761719 13.976562 6.539062 C 13.730469 6.335938 13.472656 6.242188 13.15625 6.242188 C 12.765625 6.242188 12.449219 6.359375 12.214844 6.597656 C 12.125 6.691406 12.046875 6.796875 11.90625 7.023438 C 11.773438 7.234375 11.707031 7.324219 11.617188 7.394531 C 11.496094 7.492188 11.378906 7.527344 11.195312 7.527344 C 10.929688 7.527344 10.652344 7.425781 10.34375 7.203125 C 10.234375 7.128906 10.035156 6.96875 10.03125 6.949219 C 10.03125 6.941406 10.054688 6.9375 10.089844 6.929688 C 10.589844 6.867188 11.199219 6.570312 11.527344 6.230469 C 11.679688 6.070312 11.765625 5.902344 11.8125 5.675781 C 11.84375 5.539062 11.839844 5.222656 11.808594 4.941406 C 11.746094 4.390625 11.792969 4.1875 12.03125 4.03125 C 12.453125 3.746094 13.128906 3.792969 13.972656 4.160156 L 14.039062 4.191406 L 13.90625 4.058594 C 13.523438 3.683594 13.109375 3.441406 12.695312 3.359375 C 12.535156 3.324219 12.253906 3.332031 12.113281 3.371094 C 11.910156 3.425781 11.683594 3.554688 11.507812 3.71875 C 11.390625 3.832031 11.324219 3.917969 11.257812 4.042969 C 11.15625 4.234375 11.128906 4.367188 11.113281 4.738281 C 11.101562 5.042969 11.089844 5.136719 11.054688 5.246094 C 10.976562 5.480469 10.742188 5.65625 10.410156 5.726562 C 10.238281 5.761719 9.898438 5.761719 9.675781 5.726562 C 9.445312 5.6875 9.4375 5.6875 9.445312 5.675781 C 9.445312 5.671875 9.484375 5.640625 9.53125 5.601562 C 9.652344 5.503906 9.855469 5.292969 9.957031 5.15625 C 10.164062 4.886719 10.332031 4.535156 10.394531 4.277344 C 10.425781 4.144531 10.421875 3.917969 10.390625 3.792969 C 10.328125 3.570312 10.242188 3.40625 10 3.074219 C 9.71875 2.691406 9.664062 2.578125 9.664062 2.386719 C 9.664062 2.269531 9.6875 2.203125 9.765625 2.070312 C 9.820312 1.976562 10.015625 1.78125 10.128906 1.707031 C 10.4375 1.507812 10.898438 1.359375 11.414062 1.300781 L 11.546875 1.285156 L 11.476562 1.265625 C 11.371094 1.234375 11.183594 1.191406 11.039062 1.167969 C 10.855469 1.140625 10.371094 1.140625 10.214844 1.167969 C 9.746094 1.257812 9.414062 1.5 9.21875 1.882812 C 9.101562 2.121094 9.054688 2.324219 9.0625 2.558594 C 9.074219 2.789062 9.117188 2.917969 9.296875 3.253906 C 9.421875 3.488281 9.46875 3.601562 9.488281 3.710938 C 9.515625 3.863281 9.476562 4.023438 9.378906 4.179688 C 9.246094 4.394531 9.039062 4.5625 8.71875 4.714844 C 8.582031 4.78125 8.3125 4.886719 8.304688 4.878906 C 8.300781 4.878906 8.316406 4.828125 8.339844 4.773438 C 8.46875 4.429688 8.515625 4.148438 8.503906 3.753906 C 8.492188 3.246094 8.398438 2.984375 8.144531 2.738281 C 8.011719 2.601562 7.816406 2.488281 7.460938 2.332031 C 7.085938 2.167969 6.945312 2.074219 6.859375 1.9375 C 6.757812 1.777344 6.757812 1.492188 6.859375 1.214844 C 6.988281 0.875 7.351562 0.449219 7.789062 0.125 C 7.851562 0.078125 7.902344 0.0390625 7.914062 0.0351562 C 7.929688 0.015625 7.890625 0.0234375 7.753906 0.0625 Z M 7.660156 5.199219 C 8.152344 5.265625 8.597656 5.484375 8.957031 5.839844 C 9.542969 6.429688 9.75 7.3125 9.484375 8.105469 C 9.230469 8.863281 8.609375 9.417969 7.820312 9.585938 C 7.628906 9.625 7.273438 9.640625 7.074219 9.609375 C 6.5625 9.535156 6.132812 9.316406 5.777344 8.941406 C 5.429688 8.582031 5.230469 8.152344 5.167969 7.648438 C 5.140625 7.425781 5.167969 7.089844 5.222656 6.867188 C 5.445312 5.984375 6.183594 5.324219 7.085938 5.199219 C 7.238281 5.179688 7.496094 5.179688 7.660156 5.199219 Z M 7.660156 5.199219 "/>
<path style=" stroke:none;fill-rule:nonzero;fill:rgb(100%,59.607843%,0%);fill-opacity:1;" d="M 7.09375 5.5 C 6.664062 5.570312 6.332031 5.738281 6.023438 6.046875 C 5.789062 6.28125 5.644531 6.515625 5.546875 6.816406 C 5.476562 7.039062 5.464844 7.117188 5.464844 7.410156 C 5.464844 7.695312 5.480469 7.800781 5.554688 8.015625 C 5.832031 8.847656 6.652344 9.394531 7.523438 9.324219 C 8.390625 9.253906 9.082031 8.640625 9.265625 7.777344 C 9.289062 7.652344 9.296875 7.609375 9.296875 7.414062 C 9.296875 7.253906 9.289062 7.167969 9.273438 7.082031 C 9.199219 6.667969 9.019531 6.328125 8.726562 6.035156 C 8.457031 5.769531 8.128906 5.59375 7.753906 5.515625 C 7.597656 5.484375 7.246094 5.476562 7.09375 5.5 Z M 7.09375 5.5 "/>
</g>
</svg>
