<?xml version="1.0" encoding="UTF-8"?>
<svg xmlns="http://www.w3.org/2000/svg" xmlns:xlink="http://www.w3.org/1999/xlink" width="13pt" height="15pt" viewBox="0 0 13 15" version="1.1">
<g id="surface1">
<path style=" stroke:none;fill-rule:nonzero;fill:#0a192f;fill-opacity:1;" d="M 7.527344 0.015625 C 6.601562 0.0664062 5.6875 0.273438 4.84375 0.613281 C 4.488281 0.757812 3.820312 1.097656 3.609375 1.238281 C 3.585938 1.257812 3.472656 1.328125 3.371094 1.398438 C 3.148438 1.546875 2.914062 1.726562 2.71875 1.886719 C 2.515625 2.054688 2.25 2.292969 2.222656 2.328125 C 2.207031 2.347656 2.144531 2.414062 2.078125 2.484375 C 0.546875 4.070312 -0.191406 6.210938 0.0429688 8.351562 C 0.238281 10.074219 1.039062 11.671875 2.339844 12.898438 C 3.171875 13.683594 4.132812 14.265625 5.238281 14.652344 C 5.746094 14.832031 6.320312 14.96875 6.871094 15.046875 C 7.296875 15.101562 7.507812 15.113281 7.996094 15.113281 C 8.464844 15.117188 8.644531 15.105469 9.011719 15.058594 C 9.117188 15.046875 9.238281 15.035156 9.28125 15.03125 C 9.320312 15.027344 9.429688 15.007812 9.523438 14.988281 C 10.40625 14.800781 10.894531 14.644531 11.558594 14.335938 C 12.039062 14.109375 12.398438 13.902344 12.808594 13.613281 C 13.132812 13.382812 13.164062 13.347656 13.105469 13.292969 C 13.082031 13.273438 13.050781 13.269531 12.8125 13.265625 C 10.632812 13.203125 8.578125 12.273438 7.125 10.691406 C 5.644531 9.074219 4.976562 6.902344 5.308594 4.773438 C 5.582031 3.007812 6.519531 1.402344 7.964844 0.226562 C 8.109375 0.109375 8.109375 0.109375 8.109375 0.0703125 C 8.109375 0.0078125 8.082031 0 7.875 0 C 7.773438 0.00390625 7.617188 0.0078125 7.527344 0.015625 Z M 7.527344 0.015625 "/>
</g>
</svg>
