<?xml version="1.0" standalone="no"?>
<!DOCTYPE svg PUBLIC "-//W3C//DTD SVG 20010904//EN"
 "http://www.w3.org/TR/2001/REC-SVG-20010904/DTD/svg10.dtd">
<svg version="1.0" xmlns="http://www.w3.org/2000/svg"
 width="1280.000000pt" height="1280.000000pt" viewBox="0 0 1280.000000 1280.000000"
 preserveAspectRatio="xMidYMid meet">
<metadata>
Created by potrace 1.15, written by Peter Selinger 2001-2017
</metadata>
<g transform="translate(0.000000,1280.000000) scale(0.100000,-0.100000)"
fill="#ff9800" stroke="none">
<path d="M6720 12745 c-172 -50 -299 -99 -465 -180 -637 -310 -935 -771 -861
-1331 50 -382 199 -616 529 -830 75 -49 183 -118 239 -154 120 -77 222 -173
266 -251 45 -79 72 -193 72 -300 0 -284 -142 -590 -434 -938 -82 -97 -70 -107
-105 85 -68 371 -252 752 -510 1059 -148 176 -338 287 -567 331 -125 24 -359
21 -599 -7 -240 -28 -454 -30 -545 -6 -142 38 -239 127 -321 292 -58 118 -85
216 -100 372 -32 313 68 769 266 1218 l26 60 -81 -80 c-337 -330 -584 -757
-646 -1115 -22 -130 -15 -352 14 -466 46 -173 129 -328 260 -484 190 -226 398
-342 680 -379 42 -6 183 -15 312 -20 339 -14 444 -46 571 -171 183 -180 270
-497 240 -871 -10 -124 -42 -344 -57 -391 -4 -13 -23 4 -78 70 -222 263 -476
461 -781 608 -236 114 -384 154 -562 154 -243 -1 -454 -85 -753 -301 -274
-198 -322 -231 -393 -269 -200 -108 -325 -114 -502 -25 -384 194 -647 735
-731 1505 -8 78 -11 72 -55 -105 -55 -224 -73 -376 -73 -625 -1 -145 4 -254
13 -305 49 -292 148 -507 317 -684 95 -100 188 -168 319 -234 266 -133 525
-167 780 -103 82 21 153 52 390 171 309 155 365 175 490 175 281 0 561 -234
765 -640 51 -101 166 -389 158 -395 -2 -1 -50 15 -107 37 -254 96 -506 141
-801 141 -496 1 -774 -102 -998 -370 -105 -125 -172 -246 -307 -554 -163 -371
-262 -496 -433 -549 -125 -39 -342 -24 -496 34 -325 123 -682 424 -983 830
-42 56 -77 103 -80 106 -13 14 65 -248 113 -380 20 -52 68 -163 109 -245 323
-660 812 -952 1405 -839 246 46 424 138 576 295 93 97 132 152 254 349 122
198 188 282 269 343 110 83 223 112 401 104 177 -8 344 -64 544 -181 98 -58
289 -198 381 -279 l49 -44 -74 -12 c-120 -19 -337 -75 -445 -116 -314 -116
-657 -336 -821 -526 -214 -249 -272 -529 -214 -1039 43 -376 36 -528 -28 -657
-69 -136 -224 -240 -447 -300 -92 -25 -115 -27 -300 -27 -165 0 -222 4 -329
23 -222 39 -494 124 -731 227 l-100 44 115 -113 c455 -444 982 -680 1407 -628
260 32 493 151 698 356 144 143 219 265 269 437 34 119 44 206 56 483 7 183
14 259 29 318 49 188 153 307 352 402 238 113 642 130 1021 44 l47 -11 -87
-72 c-256 -214 -468 -488 -613 -791 -118 -248 -154 -395 -146 -595 10 -263 89
-430 411 -874 250 -343 292 -502 191 -714 -148 -312 -505 -543 -1035 -672
-151 -36 -337 -69 -443 -77 -43 -3 -80 -9 -82 -13 -10 -16 256 -77 450 -104
252 -35 509 -30 722 14 413 86 709 327 863 704 140 344 129 631 -38 956 -22
41 -77 149 -124 240 -95 185 -118 260 -118 383 0 271 216 542 591 741 137 73
422 187 435 174 2 -3 -12 -47 -31 -98 -45 -116 -98 -321 -121 -470 -25 -161
-26 -511 -1 -668 44 -279 129 -454 298 -618 128 -122 263 -203 559 -334 410
-181 527 -268 590 -437 60 -162 24 -426 -89 -650 -139 -276 -422 -589 -765
-846 -84 -63 -87 -67 -57 -67 62 0 390 117 556 199 403 198 659 437 787 733
57 132 78 231 85 389 15 358 -95 660 -319 875 -79 76 -148 124 -444 314 -230
147 -317 267 -344 473 -39 292 118 663 440 1037 l64 74 17 -105 c58 -364 210
-717 443 -1029 135 -180 275 -298 434 -365 214 -90 419 -103 842 -55 96 11
236 20 310 20 212 0 303 -31 410 -139 80 -81 149 -211 187 -356 25 -93 27
-116 27 -310 0 -178 -3 -228 -22 -330 -44 -231 -106 -437 -199 -659 -30 -72
-57 -138 -60 -146 -10 -27 137 123 236 240 121 145 190 243 278 396 205 359
269 721 182 1034 -88 317 -367 644 -646 760 -156 65 -262 81 -653 99 -273 13
-359 37 -479 131 -133 106 -231 303 -268 545 -18 123 -13 421 11 565 22 128
38 200 45 199 3 0 31 -31 61 -70 75 -95 265 -280 378 -367 212 -163 521 -323
727 -376 292 -75 569 -16 877 187 46 30 164 113 263 186 182 133 335 219 427
242 69 16 202 7 270 -20 145 -56 315 -203 422 -363 66 -100 162 -297 206 -423
70 -202 139 -522 156 -724 4 -44 10 -78 15 -76 4 3 21 62 38 133 130 538 111
1009 -54 1357 -104 219 -280 396 -505 510 -220 111 -451 160 -642 136 -176
-23 -291 -68 -658 -261 -63 -33 -151 -72 -195 -86 -367 -119 -753 163 -993
726 -54 126 -105 270 -99 277 2 2 40 -10 83 -27 124 -48 276 -89 434 -117 127
-23 173 -26 375 -27 475 -2 712 73 936 294 138 136 231 289 364 595 141 326
226 457 348 536 197 128 556 75 869 -126 239 -155 506 -416 715 -699 40 -55
73 -96 73 -92 0 22 -45 178 -85 294 -135 395 -348 733 -583 925 -216 177 -437
257 -713 257 -340 0 -613 -102 -815 -307 -79 -81 -145 -171 -267 -368 -115
-185 -175 -261 -252 -323 -105 -83 -205 -114 -365 -114 -231 -1 -469 90 -738
279 -92 66 -265 207 -270 222 -2 5 21 12 50 16 434 55 962 313 1244 607 134
139 209 282 251 479 25 119 23 394 -5 638 -56 476 -13 652 192 789 366 245
951 206 1681 -112 l60 -27 -115 113 c-333 327 -692 535 -1050 608 -139 29
-380 24 -505 -10 -176 -47 -371 -161 -523 -304 -103 -98 -160 -171 -217 -279
-87 -165 -112 -281 -125 -602 -11 -265 -21 -347 -51 -439 -68 -204 -271 -356
-559 -417 -148 -32 -445 -32 -635 -1 -202 33 -206 34 -203 42 2 4 37 34 78 67
103 83 280 268 367 384 178 237 327 538 379 764 26 113 24 311 -5 418 -51 193
-128 335 -337 622 -242 333 -289 430 -289 595 0 104 18 161 86 278 47 78 217
248 314 311 268 176 670 303 1115 354 l115 13 -60 18 c-91 27 -256 63 -379 83
-160 25 -582 25 -716 0 -404 -77 -693 -285 -861 -620 -104 -206 -144 -380
-136 -582 8 -202 46 -314 202 -605 108 -202 149 -301 166 -396 23 -131 -10
-271 -94 -407 -116 -185 -296 -331 -572 -463 -121 -58 -353 -149 -361 -142 -1
2 12 44 31 94 112 297 151 539 142 883 -10 439 -91 667 -309 880 -117 115
-286 215 -593 351 -325 144 -446 223 -521 342 -89 140 -88 386 1 624 111 296
424 664 805 947 52 39 99 74 105 79 16 14 -17 8 -135 -27z m-83 -4450 c429
-56 812 -246 1122 -556 509 -511 689 -1276 460 -1963 -220 -657 -760 -1136
-1444 -1282 -164 -35 -473 -45 -645 -20 -444 65 -815 255 -1125 578 -300 312
-474 684 -526 1122 -23 193 -3 483 46 676 193 766 832 1338 1614 1445 133 18
358 18 498 0z"/>
<path d="M6147 8035 c-373 -61 -660 -208 -928 -475 -204 -203 -329 -405 -412
-665 -63 -195 -72 -263 -72 -515 1 -248 14 -338 76 -525 241 -723 952 -1195
1709 -1134 750 60 1350 593 1507 1338 23 111 27 149 27 316 0 141 -5 216 -18
290 -65 357 -220 651 -476 905 -232 230 -518 383 -843 451 -134 28 -439 35
-570 14z"/>
</g>
</svg>
